<svg width="124" height="45" fill="none" xmlns="http://www.w3.org/2000/svg"><mask id="a" fill="#fff"><path fill-rule="evenodd" clip-rule="evenodd" d="M123.637 22.451c0 12.27-9.946 22.217-22.216 22.217-6.657 0-12.63-2.929-16.703-7.568-2.572-2.93-5.973-5.342-9.872-5.342H49.338c-3.899 0-7.3 2.412-9.872 5.343-4.072 4.639-10.045 7.567-16.703 7.567-12.27 0-22.216-9.946-22.216-22.216C.547 10.182 10.493.236 22.763.236c6.657 0 12.63 2.928 16.702 7.566 2.572 2.93 5.973 5.342 9.872 5.342h25.51c3.9 0 7.3-2.412 9.872-5.342C88.791 3.163 94.764.235 101.421.235c12.27 0 22.216 9.947 22.216 22.216Z"/></mask><path d="M101.421 46.668c13.374 0 24.216-10.842 24.216-24.216h-4c0 11.165-9.051 20.216-20.216 20.216v4ZM83.215 38.42c4.436 5.053 10.949 8.248 18.206 8.248v-4c-6.058 0-11.491-2.662-15.2-6.887l-3.006 2.639Zm-8.369-8.662H49.338v4h25.508v-4Zm-52.083 16.91c7.257 0 13.77-3.195 18.206-8.248l-3.006-2.639c-3.708 4.225-9.142 6.887-15.2 6.887v4ZM-1.453 22.452c0 13.374 10.842 24.216 24.216 24.216v-4c-11.165 0-20.216-9.051-20.216-20.216h-4ZM22.763-1.764C9.389-1.764-1.453 9.078-1.453 22.452h4c0-11.165 9.051-20.216 20.216-20.216v-4Zm18.205 8.247C36.533 1.43 30.02-1.764 22.763-1.764v4c6.057 0 11.49 2.661 15.199 6.885l3.006-2.638Zm8.369 8.661h25.51v-4h-25.51v4ZM101.42-1.765c-7.257 0-13.77 3.195-18.205 8.247l3.006 2.64c3.708-4.225 9.142-6.887 15.199-6.887v-4Zm24.216 24.216c0-13.374-10.842-24.216-24.216-24.216v4c11.165 0 20.216 9.051 20.216 20.216h4Zm-50.79-7.307c4.743 0 8.646-2.913 11.375-6.023l-3.006-2.639c-2.415 2.752-5.313 4.662-8.369 4.662v4ZM49.338 29.758c-4.743 0-8.646 2.914-11.375 6.023l3.006 2.639c2.415-2.752 5.314-4.662 8.37-4.662v-4ZM37.962 9.12c2.73 3.11 6.632 6.023 11.375 6.023v-4c-3.056 0-5.954-1.91-8.37-4.661L37.963 9.12Zm48.26 26.66c-2.73-3.11-6.633-6.023-11.376-6.023v4c3.056 0 5.954 1.91 8.37 4.662l3.006-2.639Z" fill="#C4C4C4" mask="url(#a)"/><circle cx="22.965" cy="22.452" r="10.45" fill="#2061E6"/><circle cx="100.188" cy="22.452" r="10.45" fill="#C4C4C4"/></svg>