<svg width="144" height="116" fill="none" xmlns="http://www.w3.org/2000/svg"><g clip-path="url(#a)" filter="url(#b)"><path d="M61.803.19H28.19c-2.219 0-2.523.32-2.523 2.546v13.28c0 1.028-.336 1.47-1.387 1.406a7.767 7.767 0 0 0-2.513.064 2.317 2.317 0 0 0-1.398 1.262c-.299.852.358 1.438 1.184 1.598.747.1 1.5.14 2.252.117 1.835 0 1.846 0 1.846 1.826v35.986c0 2.285.315 2.593 2.625 2.593h42.275a4.97 4.97 0 0 1 1.323.038c.396.12.748.35 1.014.665a36.68 36.68 0 0 1 2.358 3.195c.443.62.727 1.338.827 2.093.118 1.944 0 3.893.048 5.858a9.576 9.576 0 0 0 2.802 6.766 9.612 9.612 0 0 0 6.77 2.819c2.624.037 5.254.133 7.869 0 2.3-.071 4.583-.404 6.807-.99 14.741-4.447 19.783-23.17 9.326-34.453-1.99-2.13-4.135-4.149-6.167-6.252-1.313-1.353-2.796-2.327-4.738-2.412-.736-.032-.992-.405-.987-1.108V21.682c0-.879.39-1.166 1.222-1.134.843.045 1.689.024 2.529-.064a1.417 1.417 0 0 0 1.365-1 1.42 1.42 0 0 0 .049-.598c-.07-.926-.662-1.31-1.516-1.357a15.859 15.859 0 0 0-2.134 0c-1.168.095-1.541-.384-1.53-1.534.052-4.34.026-8.68 0-13.014 0-2.38-.305-2.663-2.668-2.663L61.803.19ZM4.61 84.197v5.165c0 .996.32 1.79 1.451 1.832 1.131.043 1.564-.767 1.6-1.736.038-3.44.033-6.88 0-10.32 0-.995-.49-1.746-1.6-1.693-1.11.053-1.419.762-1.413 1.725l-.038 5.027Zm3.041-43.819v-4.904c0-1.278-.688-2.13-1.6-2.002-1.19.138-1.425 1-1.42 2.028v9.809c0 1.033.246 1.88 1.441 1.997.944.09 1.6-.72 1.6-2.024 0-1.63-.02-3.27-.02-4.904Zm0 21.912v-4.899c0-1.352-.597-2.05-1.6-1.98-1.249.08-1.44.953-1.435 1.97v9.792c0 1.017.197 1.89 1.43 1.992.986.08 1.6-.64 1.6-1.981.027-1.63.005-3.264.005-4.894ZM117.48 17.417h-4.924c-.993 0-1.852.33-1.91 1.405-.059 1.076.773 1.598 1.744 1.598 3.329.043 6.657.043 9.982 0 .971 0 1.745-.49 1.67-1.635-.074-1.145-.832-1.368-1.771-1.374l-4.791.006Zm22.103 22.956v-5.027c0-.996-.304-1.842-1.419-1.853-1.115-.01-1.525.836-1.525 1.895v10.054c0 1.022.341 1.805 1.435 1.843 1.221.042 1.509-.847 1.509-1.886v-5.026Zm0 43.835v-5.043c0-.953-.309-1.71-1.397-1.72-1.089-.01-1.542.682-1.537 1.73v10.22c0 1.022.363 1.778 1.483 1.794 1.121.016 1.446-.83 1.451-1.805.006-1.726 0-3.45 0-5.176Zm0-21.918v-5.17c0-.948-.298-1.71-1.403-1.704-1.104.005-1.531.708-1.525 1.752V67.38c0 1.022.373 1.768 1.504 1.773 1.131.005 1.424-.846 1.43-1.821 0-1.677-.006-3.36-.006-5.043ZM4.616 21.405v2.253c0 .92.442 1.56 1.397 1.597 1.067.064 1.51-.612 1.6-1.56.028-.484.028-.97 0-1.454 0-1.768 0-1.762 1.735-1.778.619 0 1.355.138 1.824-.144a2.425 2.425 0 0 0 1.169-1.598c0-.415-.806-1.065-1.366-1.24a8.627 8.627 0 0 0-2.38-.07c-3.99 0-3.99 0-3.98 3.994Zm4.006 85.732c.838 0 1.686.048 2.518 0 .833-.048 1.494-.665 1.286-1.491a2.227 2.227 0 0 0-1.307-1.315c-.726-.24-1.574-.101-2.374-.101s-1.126-.33-1.094-1.129c.047-.792.028-1.586-.058-2.375-.118-.868-.625-1.475-1.601-1.395a1.393 1.393 0 0 0-1.36 1.501c-.032.789 0 1.598 0 2.381-.113 4.18.058 3.972 3.99 3.924Zm130.935-85.79h.026v-2.13c0-1.21-.576-1.806-1.776-1.81h-4.396c-.902 0-1.601.41-1.702 1.341-.102.932.56 1.475 1.44 1.598.793.096 1.593.127 2.39.09.801 0 1.132.32 1.11 1.102-.021.783 0 1.507 0 2.258a1.383 1.383 0 0 0 .402 1.033 1.382 1.382 0 0 0 1.033.405 1.297 1.297 0 0 0 1.451-1.38c.054-.825.022-1.666.022-2.507Zm-3.9 85.79h2.395a1.36 1.36 0 0 0 1.376-.818c.075-.176.111-.365.107-.556a40.399 40.399 0 0 0-.053-5.149c-.048-.479-.821-1.14-1.36-1.251-.849-.187-1.382.468-1.446 1.336a21.991 21.991 0 0 0-.027 2.381c0 .788-.347 1.128-1.11 1.128-.762 0-1.6 0-2.39.043-.891.048-1.558.618-1.397 1.411a2.31 2.31 0 0 0 1.403 1.411c.784.235 1.664.064 2.502.064Zm-16.507 0h4.385c.987 0 1.697-.399 1.74-1.411.048-1.129-.737-1.512-1.75-1.512h-8.793c-.981 0-1.707.442-1.691 1.453.016 1.012.704 1.465 1.707 1.46 1.478.01 2.94.01 4.402.01Zm-93.94 0h4.385c.992 0 1.69-.452 1.723-1.438.032-.985-.683-1.475-1.665-1.475H20.75c-.971 0-1.697.437-1.654 1.475.043 1.039.742 1.438 1.74 1.438h4.374Zm18.752 0h4.38c1.03 0 1.766-.41 1.75-1.517-.016-1.108-.768-1.401-1.723-1.401h-8.76c-.955 0-1.692.346-1.676 1.427.016 1.081.763 1.491 1.782 1.486l4.247.005Zm56.366 0h4.385c1.024 0 1.755-.378 1.745-1.512-.011-1.134-.758-1.401-1.708-1.406h-8.76c-.96 0-1.707.368-1.696 1.422.01 1.054.752 1.496 1.766 1.496h4.268Zm-18.839 0h4.396c1.02 0 1.798-.346 1.804-1.475.005-1.129-.752-1.432-1.707-1.438h-8.793c-.976 0-1.67.384-1.643 1.465.027 1.081.694 1.454 1.68 1.448h4.263Zm-18.673 0h4.434c1.008 0 1.6-.468 1.6-1.507 0-1.038-.65-1.395-1.6-1.4h-8.926c-.965 0-1.686.431-1.638 1.485.048 1.055.747 1.428 1.729 1.422h4.417-.016Z" fill="#fff"/><path d="M61.802.19H95.14c2.38 0 2.667.304 2.667 2.663 0 4.334.032 8.674 0 13.014 0 1.15.363 1.63 1.532 1.534a15.87 15.87 0 0 1 2.134 0c.853.047 1.445.43 1.515 1.358a1.404 1.404 0 0 1-.342 1.12 1.412 1.412 0 0 1-1.072.477c-.84.088-1.686.11-2.529.064-.832-.032-1.222.255-1.222 1.134.022 5.133.022 10.268 0 15.405 0 .703.251 1.065.987 1.108 1.942.085 3.426 1.065 4.738 2.412 2.033 2.13 4.177 4.106 6.167 6.252 10.457 11.283 5.416 30.006-9.325 34.452-2.225.587-4.509.92-6.808.99-2.614.16-5.245.064-7.87 0a9.613 9.613 0 0 1-6.77-2.818 9.576 9.576 0 0 1-2.8-6.766c-.027-1.95.069-3.898-.049-5.858a4.644 4.644 0 0 0-.826-2.093 36.659 36.659 0 0 0-2.359-3.195 2.134 2.134 0 0 0-1.013-.665 4.97 4.97 0 0 0-1.323-.037h-42.27c-2.31 0-2.626-.31-2.626-2.594V22.161c0-1.821 0-1.81-1.846-1.826a13.756 13.756 0 0 1-2.25-.117c-.828-.155-1.484-.74-1.185-1.598a2.311 2.311 0 0 1 1.398-1.262 7.766 7.766 0 0 1 2.512-.064c1.067.064 1.393-.378 1.387-1.406-.037-4.425 0-8.85 0-13.28 0-2.226.305-2.54 2.524-2.546L61.802.19Zm-33.03 48.457c.619-.532 1.019-.878 1.382-1.235 3.932-3.908 7.853-7.833 11.79-11.715 1.217-1.209 1.958-1.209 3.164 0 2.054 2.018 4.145 4.005 6.109 6.113.955 1.033 1.504.89 2.422-.037 6.882-6.976 13.818-13.898 20.737-20.842 1.846-1.858 2.337-1.858 4.231.027 4.93 4.913 9.863 9.826 14.8 14.74.347.345.752.628 1.414 1.17V5.314c0-2.173 0-2.178-2.204-2.178H30.89c-2.257 0-2.268 0-2.268 2.29v41.423c.006.474.086.985.15 1.805v-.005Zm22.082 9.213c6.84 0 13.684 0 20.524-.032a2.165 2.165 0 0 0 1.633-.746 7.396 7.396 0 0 1 3.926-3.408 1.696 1.696 0 0 0 .88-1.107c.652-3.659 2.29-5.187 6.099-5.693a1.678 1.678 0 0 0 1.11-.862c1.312-2.94 3.617-4.298 6.78-4.02.513-.03.994-.26 1.34-.64.746-.788.34-1.437-.353-2.13-5.04-4.93-10.064-9.878-15.071-14.84-1.254-1.241-1.249-1.236-2.465 0L53.97 45.596c-1.323 1.316-1.921 1.316-3.233 0a1323.2 1323.2 0 0 1-5.938-5.91c-1.26-1.252-1.265-1.252-2.492-.043-3.884 3.829-7.699 7.732-11.679 11.46-1.525 1.432-2.246 2.901-2.038 4.978.177 1.699.086 1.747 1.868 1.747l20.396.032Zm29.343 11.752-.48.17c-.002 1.301.07 2.6.219 3.893.47 2.796 2.507 4.867 5.335 4.93 4.028.097 8.136.267 12.084-.388 6.845-1.134 11.433-5.431 13.487-11.981 2.006-6.39.63-12.248-3.969-17.248-1.985-2.13-4.124-4.158-6.21-6.214-1.174-1.16-2.385-1.315-3.425-.485-1.04.831-1.18 1.944-.209 3.398.582.873.795 1.725-.096 2.481-.89.756-1.835.58-2.667-.117-.64-.532-1.184-1.198-1.809-1.768-1.12-1.028-2.465-1.022-3.44 0-.977 1.023-.945 2.215.047 3.318.624.692 1.329 1.31 1.937 2.013a1.599 1.599 0 0 1 .389 1.755 1.597 1.597 0 0 1-.347.529 1.682 1.682 0 0 1-2.288.346 6.36 6.36 0 0 1-1.131-.916c-.833-.793-1.6-1.645-2.481-2.407a2.136 2.136 0 0 0-2.71-.223 2.131 2.131 0 0 0-1.068 2.502c.166.546.467 1.04.876 1.438 1.504 1.598 3.073 3.078 4.582 4.638.7.724.854 1.598.144 2.386s-1.648.782-2.528.234c-.36-.26-.691-.558-.987-.89-1.169-1.15-2.321-2.316-3.506-3.455a2.274 2.274 0 0 0-2.806-.495c-1.44.73-1.643 2.524-.384 3.818 2.198 2.252 4.45 4.451 6.68 6.677l3.2 3.195c.726.762.945 1.646.16 2.487a1.733 1.733 0 0 1-1.92.52 1.735 1.735 0 0 1-.598-.366 19.578 19.578 0 0 1-1.675-1.517 95.504 95.504 0 0 1-2.406-2.253v-.005ZM4.61 84.197V79.17c0-.964.368-1.677 1.413-1.725 1.046-.048 1.601.697 1.601 1.693.027 3.44.032 6.88 0 10.32 0 .969-.427 1.778-1.6 1.736-1.174-.043-1.452-.836-1.452-1.832.038-1.72.038-3.445.038-5.165ZM7.65 40.377v4.905c0 1.304-.656 2.13-1.6 2.023-1.195-.117-1.446-.964-1.44-1.997V35.5c0-1.028.229-1.89 1.419-2.03.933-.11 1.6.725 1.6 2.003.043 1.635.021 3.27.021 4.904ZM7.652 62.29v4.893c0 1.342-.62 2.061-1.601 1.981-1.232-.1-1.435-.974-1.43-1.991V57.38c0-1.017.187-1.89 1.435-1.97 1.003-.07 1.6.628 1.6 1.98.017 1.63-.004 3.265-.004 4.9ZM117.48 17.417h4.802c.939 0 1.697.303 1.771 1.374.075 1.07-.699 1.597-1.67 1.635a359.47 359.47 0 0 1-9.982 0c-.971 0-1.798-.533-1.744-1.598.053-1.065.917-1.406 1.91-1.406l4.913-.005ZM139.584 40.372V45.4c0 1.038-.288 1.928-1.51 1.885-1.094-.037-1.441-.82-1.435-1.842V35.388c0-1.065.347-1.912 1.526-1.896 1.179.016 1.424.858 1.419 1.854-.006 1.677 0 3.349 0 5.026ZM139.583 84.208v5.176c0 .975-.262 1.826-1.451 1.805-1.19-.021-1.489-.772-1.483-1.794V79.176c0-1.065.426-1.741 1.536-1.73 1.11.01 1.398.766 1.398 1.72-.006 1.682 0 3.36 0 5.042ZM139.583 62.29v5.043c0 .975-.24 1.827-1.43 1.822-1.19-.006-1.505-.751-1.505-1.774V57.168c0-1.065.406-1.747 1.526-1.752 1.121-.005 1.403.756 1.403 1.704.006 1.725.006 3.445.006 5.17ZM4.614 21.405c0-3.967 0-3.967 4.018-3.967a8.627 8.627 0 0 1 2.38.07c.533.17 1.38.825 1.365 1.24a2.42 2.42 0 0 1-1.168 1.598c-.47.282-1.206.133-1.825.143-1.723 0-1.723 0-1.734 1.779.027.484.027.97 0 1.454-.107.947-.57 1.597-1.6 1.56-.956-.059-1.382-.698-1.398-1.598-.048-.804-.038-1.555-.038-2.279ZM8.622 107.137c-3.932.064-4.103.272-4.018-3.94v-2.381a1.39 1.39 0 0 1 1.36-1.501c.988-.08 1.495.532 1.601 1.395.087.788.106 1.583.059 2.375-.032.798.336 1.123 1.094 1.129.757.005 1.648-.139 2.374.101a2.22 2.22 0 0 1 1.307 1.315c.208.825-.406 1.422-1.286 1.491-.88.069-1.654.016-2.491.016ZM139.556 21.346c0 .842.032 1.683 0 2.524a1.292 1.292 0 0 1-.886 1.324 1.3 1.3 0 0 1-.565.056 1.388 1.388 0 0 1-1.034-.405 1.374 1.374 0 0 1-.402-1.033 26.981 26.981 0 0 1 0-2.258c.038-.75-.309-1.118-1.109-1.102-.798.036-1.598.006-2.39-.09-.881-.123-1.532-.645-1.441-1.598.091-.953.8-1.331 1.702-1.342h4.396c1.201 0 1.798.602 1.777 1.81v2.13l-.048-.016ZM135.657 107.137c-.838 0-1.739.186-2.502-.059a2.32 2.32 0 0 1-1.403-1.411c-.16-.793.533-1.363 1.397-1.411.795-.042 1.601-.037 2.391-.042.789-.006 1.131-.341 1.109-1.129a21.991 21.991 0 0 1 .027-2.381c.064-.868.597-1.523 1.446-1.336.533.112 1.312.772 1.36 1.251.127 1.714.145 3.434.054 5.149a1.361 1.361 0 0 1-.433 1.019 1.358 1.358 0 0 1-1.051.355h-2.395v-.005ZM119.15 107.137h-4.386c-1.003 0-1.686-.484-1.707-1.459-.021-.974.71-1.453 1.691-1.453h8.777c1.013 0 1.798.383 1.75 1.512-.043 1.012-.753 1.416-1.74 1.411-1.462-.011-2.934-.011-4.385-.011ZM25.21 107.137h-4.392c-.981 0-1.686-.431-1.723-1.432-.037-1.002.683-1.476 1.654-1.476h8.904c.982 0 1.697.464 1.665 1.476-.032 1.011-.731 1.443-1.723 1.437-1.462-.005-2.924-.005-4.386-.005ZM43.962 107.137h-4.268c-1.019 0-1.771-.356-1.782-1.485-.01-1.129.72-1.427 1.675-1.427h8.76c.956 0 1.708.34 1.724 1.4.016 1.06-.72 1.518-1.75 1.518l-4.359-.006ZM100.327 107.137h-4.268c-1.03 0-1.777-.4-1.787-1.496-.011-1.097.736-1.417 1.696-1.422h8.76c.95 0 1.697.319 1.708 1.406.01 1.086-.721 1.512-1.745 1.512h-4.364ZM81.484 107.137h-4.268c-.987 0-1.659-.388-1.68-1.448-.022-1.06.666-1.464 1.643-1.464h8.792c.955 0 1.707.378 1.707 1.437 0 1.06-.784 1.481-1.803 1.475h-4.39ZM62.832 107.137h-4.396c-.982 0-1.68-.394-1.729-1.422-.048-1.028.673-1.48 1.638-1.486h8.926c.923 0 1.563.405 1.6 1.401.038.996-.608 1.507-1.6 1.507h-4.439Z" fill="#2061E6"/><path d="M28.773 48.653c-.064-.82-.144-1.33-.144-1.837V5.393c0-2.284 0-2.29 2.267-2.29h61.728c2.198 0 2.203 0 2.203 2.178v31.567c-.661-.533-1.067-.825-1.414-1.172a3860.446 3860.446 0 0 1-14.805-14.75c-1.894-1.885-2.384-1.885-4.23-.026-6.936 6.922-13.872 13.845-20.738 20.842-.918.926-1.467 1.065-2.422.037-1.964-2.13-4.055-4.095-6.109-6.113-1.206-1.188-1.947-1.188-3.164 0-3.937 3.898-7.858 7.822-11.79 11.715-.363.394-.785.718-1.382 1.272Zm18.673-20.858a7.83 7.83 0 0 0 5.642-2.244 7.8 7.8 0 0 0 2.329-5.6 7.825 7.825 0 0 0-2.317-5.613 7.854 7.854 0 0 0-5.638-2.278 7.759 7.759 0 0 0-5.65 2.246 7.731 7.731 0 0 0-2.283 5.624 7.682 7.682 0 0 0 2.27 5.63 7.712 7.712 0 0 0 5.652 2.235h-.005Z" fill="#fff"/><path d="M50.854 57.865H30.437c-1.782 0-1.691-.048-1.867-1.746-.209-2.077.533-3.547 2.038-4.98 3.98-3.727 7.794-7.63 11.678-11.458 1.227-1.21 1.233-1.21 2.492.042l5.938 5.91c1.312 1.295 1.91 1.295 3.233 0l21.303-21.235c1.216-1.214 1.211-1.22 2.465 0l15.072 14.84c.693.677 1.099 1.327.352 2.13-.346.38-.827.61-1.34.64-3.163-.277-5.468 1.065-6.78 4.02a1.675 1.675 0 0 1-1.11.863c-3.81.506-5.447 2.034-6.098 5.692a1.693 1.693 0 0 1-.88 1.108 7.395 7.395 0 0 0-3.927 3.408 2.162 2.162 0 0 1-1.633.73c-6.834.052-13.679.036-20.519.036ZM80.197 69.617l2.39 2.252a19.578 19.578 0 0 0 1.676 1.518 1.733 1.733 0 0 0 1.969.282c.21-.107.397-.255.549-.436.784-.842.565-1.726-.16-2.487-1.04-1.065-2.134-2.13-3.201-3.195-2.23-2.226-4.482-4.425-6.68-6.678-1.26-1.294-1.067-3.088.384-3.818a2.276 2.276 0 0 1 2.806.496c1.185 1.14 2.337 2.305 3.506 3.456.296.33.627.629.987.889.88.532 1.792.596 2.528-.235.737-.83.534-1.66-.144-2.385-1.51-1.56-3.078-3.067-4.582-4.638a3.364 3.364 0 0 1-.875-1.438 2.126 2.126 0 0 1 1.067-2.503 2.137 2.137 0 0 1 2.71.224c.864.761 1.648 1.598 2.48 2.407.341.347.72.655 1.132.916a1.683 1.683 0 0 0 2.288-.346 1.598 1.598 0 0 0-.042-2.285c-.608-.703-1.313-1.32-1.937-2.013-.992-1.102-.998-2.348-.048-3.317.95-.97 2.32-1.006 3.441 0 .624.57 1.169 1.225 1.809 1.768.832.697 1.782.868 2.668.117.885-.75.677-1.597.095-2.481-.97-1.454-.885-2.52.209-3.398 1.093-.878 2.251-.676 3.425.485 2.086 2.055 4.225 4.063 6.21 6.214 4.599 4.974 5.975 10.858 3.969 17.248-2.054 6.55-6.642 10.847-13.487 11.98-3.948.656-8.056.485-12.084.39-2.806-.064-4.844-2.13-5.335-4.931a33.663 33.663 0 0 1-.219-3.893l.496-.165Z" fill="#fff"/><path d="M47.45 27.795a7.72 7.72 0 0 1-5.648-2.238 7.695 7.695 0 0 1-2.269-5.627 7.72 7.72 0 0 1 2.285-5.624 7.749 7.749 0 0 1 5.649-2.246 7.866 7.866 0 0 1 5.637 2.278 7.839 7.839 0 0 1 2.317 5.614 7.79 7.79 0 0 1-2.328 5.599 7.818 7.818 0 0 1-5.643 2.244Zm0-3.13a4.81 4.81 0 0 0 3.488-1.394 4.791 4.791 0 0 0 1.415-3.474 5.016 5.016 0 0 0-1.48-3.52 5.036 5.036 0 0 0-3.534-1.464 5.227 5.227 0 0 0-3.422 1.569 5.208 5.208 0 0 0-1.476 3.458 4.953 4.953 0 0 0 1.524 3.442 4.972 4.972 0 0 0 3.507 1.382h-.022Z" fill="#2061E6"/><path d="M47.473 24.664a4.972 4.972 0 0 1-3.494-1.39 4.953 4.953 0 0 1-1.516-3.435 5.208 5.208 0 0 1 1.475-3.458 5.227 5.227 0 0 1 3.422-1.569 5.036 5.036 0 0 1 3.535 1.464 5.017 5.017 0 0 1 1.48 3.52 4.787 4.787 0 0 1-3.016 4.526c-.6.239-1.241.355-1.886.342Z" fill="#fff"/></g><defs><clipPath id="a"><path fill="#fff" transform="translate(4.588 .19)" d="M0 0h135v107H0z"/></clipPath><filter id="b" x=".588" y=".19" width="143" height="115" filterUnits="userSpaceOnUse" color-interpolation-filters="sRGB"><feFlood flood-opacity="0" result="BackgroundImageFix"/><feColorMatrix in="SourceAlpha" values="0 0 0 0 0 0 0 0 0 0 0 0 0 0 0 0 0 0 127 0" result="hardAlpha"/><feOffset dy="4"/><feGaussianBlur stdDeviation="2"/><feComposite in2="hardAlpha" operator="out"/><feColorMatrix values="0 0 0 0 0 0 0 0 0 0 0 0 0 0 0 0 0 0 0.25 0"/><feBlend in2="BackgroundImageFix" result="effect1_dropShadow"/><feBlend in="SourceGraphic" in2="effect1_dropShadow" result="shape"/></filter></defs></svg>