<svg width="15" height="26" fill="none" xmlns="http://www.w3.org/2000/svg"><path d="M6.599.93c1.93-.25 3.619.618 4.705 1.61.965.867 1.93 2.477 2.051 4.21.24 3.718-2.413 6.567-5.55 6.938-3.618.371-6.514-2.23-6.876-5.573-.24-3.593 1.81-5.946 4.103-6.813.482-.248 1.085-.248 1.567-.372Zm-1.93 6.813c.241 1.61 2.172 2.6 3.62 1.981.965-.496 2.171-2.23 1.084-3.965-.36-.494-1.205-1.362-2.533-1.113-1.326.246-2.412 1.362-2.17 3.097Z" fill="#fff"/><path d="M9.736 18.891c.965 1.115 1.81 1.983 2.895 3.099.361.371.724.619.964 1.114.603 1.732-.845 2.972-2.293 2.477-.723-.248-1.446-1.24-2.05-1.857-.24-.25-.602-.62-.965-.992 0 0-.723-.992-.966-.992-.119 0-.724.745-.965.992l-.965.992c-.603.617-1.326 1.733-2.05 1.98-1.448.62-3.138-.868-2.413-2.478.24-.617 1.327-1.612 1.93-2.104.725-.743 1.329-1.241 1.93-2.107-1.327-.495-3.497-.868-4.222-2.106-.845-1.363.484-3.345 2.172-2.728.362.124.723.371.964.496 1.57.868 4.101 1.115 6.154.371.845-.247 1.446-.869 2.05-.992 1.931-.495 2.776 1.86 1.81 3.098-.361.497-1.206.868-1.81 1.116-.721.25-1.446.374-2.17.621Z" fill="#fff"/></svg>