<svg width="91" height="84" fill="none" xmlns="http://www.w3.org/2000/svg"><g clip-path="url(#a)"><path d="M33.898 32.523 46.636 45.26l26.93-26.93" stroke="#60D3C4" stroke-width="7"/></g><path d="M89.1.738H18.47a1.29 1.29 0 0 0-1.286 1.29v66.304H1.898a1.29 1.29 0 0 0-1.287 1.29 13.964 13.964 0 0 0 13.948 13.95h61.87a13.965 13.965 0 0 0 13.948-13.95V2.027A1.29 1.29 0 0 0 89.1.738Zm-74.53 80.26A11.391 11.391 0 0 1 3.26 70.91h58.968a13.96 13.96 0 0 0 5.825 10.084L14.57 81Zm73.24-11.375A11.376 11.376 0 0 1 76.436 81h-.31A11.375 11.375 0 0 1 64.75 69.623a1.29 1.29 0 0 0-1.29-1.289h-43.7V3.317h68.042l.009 66.306Z" fill="#000"/><defs><clipPath id="a"><path fill="#fff" transform="translate(31.578 12.581)" d="M0 0h45.23v45.23H0z"/></clipPath></defs></svg>