<svg width="88" height="32" fill="none" xmlns="http://www.w3.org/2000/svg"><mask id="a" fill="#fff"><path fill-rule="evenodd" clip-rule="evenodd" d="M36.855 22.655c-3.9 0-7.27 2.503-10.17 5.109a15.65 15.65 0 0 1-10.493 4.018C7.517 31.782.484 24.75.484 16.075S7.517.367 16.192.367a15.65 15.65 0 0 1 10.492 4.018c2.901 2.606 6.271 5.11 10.17 5.11h14.288c3.9 0 7.27-2.504 10.17-5.11A15.65 15.65 0 0 1 71.805.367c8.675 0 15.707 7.033 15.707 15.708S80.48 31.782 71.805 31.782a15.65 15.65 0 0 1-10.493-4.018c-2.9-2.605-6.27-5.11-10.17-5.11H36.855Z"/></mask><path d="m61.312 27.764-1.336 1.488 1.336-1.488ZM26.684 4.385l-1.336 1.488 1.336-1.488ZM16.192 33.782a17.65 17.65 0 0 0 11.829-4.53l-2.673-2.976a13.65 13.65 0 0 1-9.156 3.506v4ZM-1.516 16.075c0 9.78 7.928 17.707 17.708 17.707v-4c-7.57 0-13.708-6.137-13.708-13.707h-4ZM16.192-1.633c-9.78 0-17.708 7.928-17.708 17.708h4c0-7.57 6.137-13.708 13.708-13.708v-4Zm11.829 4.53a17.65 17.65 0 0 0-11.83-4.53v4a13.65 13.65 0 0 1 9.157 3.506l2.673-2.975Zm8.834 8.598h14.287v-4H36.855v4Zm34.95-13.128a17.65 17.65 0 0 0-11.83 4.53l2.674 2.976a13.65 13.65 0 0 1 9.156-3.506v-4Zm17.707 17.708c0-9.78-7.927-17.708-17.707-17.708v4c7.57 0 13.707 6.137 13.707 13.708h4ZM71.805 33.782c9.78 0 17.707-7.928 17.707-17.707h-4c0 7.57-6.137 13.707-13.707 13.707v4Zm-11.83-4.53a17.65 17.65 0 0 0 11.83 4.53v-4a13.65 13.65 0 0 1-9.156-3.506l-2.673 2.976Zm-8.833-8.597H36.855v4h14.287v-4Zm0-9.16c4.73 0 8.608-3.018 11.507-5.622l-2.673-2.975c-2.903 2.607-5.765 4.597-8.834 4.597v4ZM62.65 26.276c-2.9-2.604-6.778-5.621-11.507-5.621v4c3.07 0 5.931 1.99 8.834 4.597l2.673-2.976ZM25.348 5.873c2.899 2.604 6.778 5.622 11.507 5.622v-4c-3.07 0-5.932-1.99-8.834-4.597l-2.673 2.975Zm2.673 23.379c2.902-2.607 5.764-4.597 8.834-4.597v-4c-4.73 0-8.608 3.017-11.507 5.621l2.673 2.976Z" fill="#C4C4C4" mask="url(#a)"/><circle cx="71.332" cy="16.075" r="7.388" fill="#2061E6"/><circle cx="16.611" cy="16.075" r="7.388" fill="#C4C4C4"/></svg>