<svg width="25" height="15" fill="none" xmlns="http://www.w3.org/2000/svg"><path d="M24.635 13.124c0-.124 0-.124-.121-.124-.365-.747-1.213-1.744-2.425-2.862-.485-.498-.848-.873-.97-1.123-.243-.373-.364-.747-.122-.995.121-.25.486-.871 1.092-1.743.363-.498.607-.87.849-1.12 1.455-1.992 2.061-3.237 1.939-3.858l-.121-.125c0-.125-.121-.125-.365-.248-.242-.126-.484-.126-.848 0H19.42l-.123.124c0 .126-.12.126-.12.25-.365.996-.85 1.991-1.335 2.864-.363.497-.606.995-.848 1.37-.242.372-.486.622-.607.87-.12.125-.363.373-.484.498-.12.125-.244.125-.364.125h-.242c-.121-.125-.242-.125-.242-.374-.123-.124-.123-.248-.123-.497v-4.98c0-.126-.121-.249-.121-.374s-.123-.249-.242-.249c-.365 0-.486-.124-.729-.124-.484-.124-.97-.124-1.697-.124-1.576 0-2.547 0-3.031.248a1.677 1.677 0 0 1-.484.374c-.121.249-.121.373 0 .373.484 0 .848.249 1.092.497l.12.124c0 .126.122.25.122.623 0 .25.12.623.12.995v1.619c0 .497-.12.747-.12.997 0 .248-.121.497-.121.622-.121.125-.244.25-.244.373l-.12.124c-.123 0-.243.126-.365.126-.121 0-.242 0-.484-.126 0-.372-.242-.497-.365-.747-.242-.248-.363-.498-.606-.87-.244-.374-.486-.872-.728-1.37l-.242-.373c-.12-.249-.243-.623-.484-.996-.243-.498-.364-.997-.606-1.37 0-.248-.121-.372-.242-.372h-.121S5.11 1.05 4.99 1.05c-.12 0-.242-.124-.242-.124H1.354c-.364 0-.606.124-.727.248v.373c-.123 0 0 .124 0 .248.484 1.246 1.09 2.366 1.697 3.487.606 1.12 1.09 1.99 1.576 2.738.363.748.727 1.366 1.213 1.994.484.62.727.995.848 1.118.121.124.244.248.363.376l.365.37c.242.25.484.5.848.748.363.248.849.623 1.334.874.484.249.97.495 1.697.746.607.125 1.213.25 1.82.25h1.454c.243 0 .485-.125.729-.25v-.125s.12-.124.12-.248v-.371c0-.375 0-.75.123-.999.121-.247.121-.497.244-.623 0-.248.12-.37.12-.498l.244-.248h.121c.244-.123.486 0 .728.248.242.25.485.498.727.75.242.248.486.621.849.995.363.375.606.623.848.872l.242.124c.123.124.363.25.607.25.242.124.485.124.727.124h3.275c.364 0 .606 0 .729-.124.12-.126.242-.25.363-.374v-.496l-.003-.379Z" fill="#fff"/></svg>