<svg width="24" height="29" viewBox="0 0 24 29" fill="none" xmlns="http://www.w3.org/2000/svg">
<path d="M23.457 1.29834V27.2983C23.457 27.5636 23.3516 27.8179 23.1641 28.0054C22.9765 28.193 22.7222 28.2983 22.457 28.2983H2.45697C2.19175 28.2983 1.9374 28.193 1.74986 28.0054C1.56233 27.8179 1.45697 27.5636 1.45697 27.2983V25.2983H3.45697V26.2983H21.457V2.29834H3.45697V5.29834H1.45697V1.29834C1.45697 1.03312 1.56233 0.778769 1.74986 0.591233C1.9374 0.403697 2.19175 0.29834 2.45697 0.29834H22.457C22.7222 0.29834 22.9765 0.403697 23.1641 0.591233C23.3516 0.778769 23.457 1.03312 23.457 1.29834ZM7.16697 18.5883L3.86697 15.2983H14.457V13.2983H3.86697L7.16697 10.0083L5.74697 8.58834L0.74697 13.5883C0.653242 13.6813 0.578848 13.7919 0.528079 13.9138C0.47731 14.0356 0.451172 14.1663 0.451172 14.2983C0.451172 14.4304 0.47731 14.5611 0.528079 14.6829C0.578848 14.8048 0.653242 14.9154 0.74697 15.0083L5.74697 20.0083L7.16697 18.5883Z" fill="white"/>
</svg>
