<svg width="444" height="354" fill="none" xmlns="http://www.w3.org/2000/svg"><g opacity=".1" clip-path="url(#a)" filter="url(#b)"><path d="M255.22.695h108.552c7.168 0 8.15 1.03 8.15 8.207v42.82c0 3.314 1.086 4.74 4.48 4.533a25.126 25.126 0 0 1 8.116.206 7.473 7.473 0 0 1 4.514 4.07c.965 2.746-1.154 4.635-3.825 5.15-2.409.325-4.841.45-7.271.378-5.928 0-5.962 0-5.962 5.889v116.03c0 7.366-1.017 8.362-8.477 8.362H226.962a16.053 16.053 0 0 0-4.273.12 6.888 6.888 0 0 0-3.274 2.146 118.49 118.49 0 0 0-7.616 10.301 14.96 14.96 0 0 0-2.67 6.748c-.379 6.267 0 12.551-.155 18.886a30.85 30.85 0 0 1-9.048 21.817 31.068 31.068 0 0 1-21.864 9.088c-8.477.12-16.972.429-25.415 0a98.038 98.038 0 0 1-21.986-3.194c-47.608-14.336-63.89-74.703-30.119-111.085 6.427-6.868 13.354-13.375 19.919-20.157 4.238-4.361 9.028-7.503 15.3-7.777 2.378-.103 3.205-1.305 3.188-3.572v-49.67c0-2.833-1.258-3.76-3.946-3.657a51.877 51.877 0 0 1-8.167-.207 4.583 4.583 0 0 1-3.462-1.537 4.538 4.538 0 0 1-1.104-3.613c.224-2.988 2.137-4.224 4.893-4.378a51.313 51.313 0 0 1 6.893 0c3.773.309 4.979-1.237 4.945-4.945-.173-13.993-.086-27.986 0-41.962 0-7.675.982-8.585 8.615-8.585L255.22.695Zm184.711 270.863v16.654c0 3.211-1.034 5.769-4.687 5.907-3.653.137-5.048-2.473-5.169-5.597-.12-11.092-.103-22.183 0-33.275 0-3.21 1.585-5.631 5.169-5.459 3.584.171 4.584 2.455 4.566 5.562l.121 16.208Zm-9.821-141.286v-15.813c0-4.12 2.222-6.868 5.169-6.456 3.842.447 4.6 3.228 4.583 6.542v31.626c0 3.331-.793 6.061-4.652 6.438-3.05.292-5.169-2.318-5.169-6.524 0-5.254.069-10.542.069-15.813Zm0 70.652v-15.796c0-4.361 1.929-6.61 5.169-6.387 4.032.258 4.652 3.073 4.635 6.353v31.574c0 3.279-.638 6.095-4.618 6.421-3.188.258-5.169-2.06-5.169-6.387-.086-5.253-.017-10.524-.017-15.778ZM75.403 56.238h15.904c3.205 0 5.979 1.065 6.168 4.533.19 3.468-2.498 5.15-5.634 5.15-10.752.138-21.498.138-32.238 0-3.136 0-5.635-1.58-5.394-5.27.242-3.692 2.688-4.413 5.721-4.43l15.473.017ZM4.017 130.255v-16.208c0-3.211.982-5.941 4.583-5.975 3.602-.034 4.928 2.696 4.928 6.112V146.6c0 3.297-1.102 5.82-4.635 5.941-3.945.137-4.876-2.73-4.876-6.078v-16.208Zm0 141.338v-16.26c0-3.073 1-5.511 4.515-5.545 3.515-.035 4.98 2.197 4.962 5.58v32.947c0 3.297-1.172 5.735-4.79 5.787-3.619.051-4.67-2.679-4.687-5.821-.017-5.563 0-11.126 0-16.688Zm0-70.669v-16.672c0-3.056.965-5.511 4.532-5.494 3.567.017 4.945 2.284 4.928 5.649v32.931c0 3.296-1.207 5.7-4.86 5.717-3.652.017-4.6-2.73-4.617-5.872 0-5.408.017-10.834.017-16.259ZM439.914 69.098v7.263c0 2.97-1.43 5.03-4.515 5.15-3.446.206-4.876-1.974-5.169-5.03a42.61 42.61 0 0 1 0-4.688c0-5.7 0-5.683-5.6-5.734-1.998 0-4.376.446-5.892-.464a7.821 7.821 0 0 1-3.774-5.15c0-1.34 2.602-3.434 4.411-4.001a27.915 27.915 0 0 1 7.685-.223c12.888 0 12.888 0 12.854 12.877Zm-12.94 276.426c-2.706 0-5.445.154-8.133 0-2.688-.155-4.825-2.147-4.153-4.808a7.19 7.19 0 0 1 4.222-4.241c2.343-.772 5.083-.326 7.667-.326 2.585 0 3.636-1.064 3.533-3.64a45.438 45.438 0 0 1 .189-7.657c.379-2.799 2.016-4.756 5.169-4.499a4.506 4.506 0 0 1 3.247 1.475 4.471 4.471 0 0 1 1.147 3.367c.103 2.541 0 5.151 0 7.675.362 13.478-.189 12.808-12.888 12.654ZM4.104 68.909h-.087V62.04c0-3.897 1.861-5.82 5.738-5.837h14.198c2.912 0 5.169 1.322 5.496 4.326.328 3.005-1.809 4.756-4.652 5.151a46.25 46.25 0 0 1-7.72.292c-2.584 0-3.652 1.03-3.583 3.554.069 2.524 0 4.859 0 7.28a4.434 4.434 0 0 1-1.297 3.33 4.466 4.466 0 0 1-3.338 1.305 4.2 4.2 0 0 1-3.398-1.119 4.17 4.17 0 0 1-1.289-3.327c-.172-2.662-.069-5.374-.069-8.087Zm12.595 276.615H8.962a4.4 4.4 0 0 1-3.391-1.145 4.362 4.362 0 0 1-1.399-3.285 130.147 130.147 0 0 1 .172-16.603c.156-1.545 2.654-3.674 4.394-4.035 2.74-.601 4.463 1.511 4.67 4.31a71.25 71.25 0 0 1 .086 7.675c0 2.541 1.12 3.639 3.584 3.639s5.169 0 7.72.138c2.877.154 5.03 1.991 4.514 4.55a7.476 7.476 0 0 1-1.753 2.782 7.519 7.519 0 0 1-2.78 1.768c-2.532.755-5.375.206-8.08.206Zm53.31 0H55.847c-3.187 0-5.479-1.288-5.617-4.55-.155-3.64 2.378-4.876 5.652-4.876h28.396c3.17 0 5.513 1.425 5.462 4.687-.052 3.262-2.275 4.721-5.514 4.704-4.773.035-9.494.035-14.215.035Zm303.395 0h-14.163c-3.205 0-5.462-1.46-5.566-4.636-.103-3.176 2.206-4.756 5.376-4.756h28.758c3.136 0 5.479 1.408 5.341 4.756-.138 3.348-2.395 4.636-5.617 4.636h-14.129Zm-60.565 0h-14.146c-3.326 0-5.704-1.322-5.652-4.894.052-3.571 2.481-4.515 5.566-4.515h28.292c3.084 0 5.462 1.116 5.41 4.601-.051 3.486-2.464 4.808-5.755 4.79l-13.715.018Zm-182.04 0h-14.163c-3.309 0-5.669-1.219-5.635-4.876.035-3.658 2.447-4.516 5.514-4.533h28.292c3.102 0 5.514 1.185 5.48 4.584-.035 3.4-2.43 4.825-5.704 4.825h-13.784Zm60.841 0h-14.198c-3.291 0-5.807-1.116-5.824-4.756-.017-3.64 2.43-4.619 5.514-4.636h28.396c3.153 0 5.393 1.236 5.307 4.722-.087 3.485-2.24 4.687-5.428 4.67H191.64Zm60.306 0h-14.318c-3.257 0-5.169-1.511-5.169-4.859s2.102-4.499 5.169-4.516h28.827c3.118 0 5.444 1.391 5.289 4.79-.155 3.4-2.412 4.602-5.582 4.585h-14.267.051Z" fill="#fff"/><path d="M255.223.695H147.549c-7.684 0-8.615.979-8.615 8.585 0 13.976-.103 27.969 0 41.962 0 3.708-1.172 5.254-4.945 4.944a51.298 51.298 0 0 0-6.892 0c-2.757.155-4.67 1.391-4.894 4.379a4.548 4.548 0 0 0 2.668 4.757c.597.265 1.245.4 1.898.393 2.713.284 5.444.352 8.168.206 2.688-.103 3.945.825 3.945 3.657a6046.983 6046.983 0 0 0 0 49.671c0 2.267-.809 3.434-3.187 3.572-6.272.274-11.062 3.433-15.301 7.777-6.565 6.868-13.491 13.238-19.918 20.157-33.772 36.382-17.49 96.749 30.119 111.085a98.087 98.087 0 0 0 21.986 3.194c8.443.515 16.937.206 25.415 0a31.07 31.07 0 0 0 21.864-9.088 30.85 30.85 0 0 0 9.047-21.817c.086-6.284-.224-12.568.155-18.886a14.973 14.973 0 0 1 2.671-6.748 118.08 118.08 0 0 1 7.616-10.301 6.888 6.888 0 0 1 3.274-2.146 16.092 16.092 0 0 1 4.273-.121h136.517c7.461 0 8.477-.995 8.477-8.361V71.536c0-5.872 0-5.838 5.962-5.89 2.43.074 4.862-.053 7.271-.377 2.671-.498 4.79-2.387 3.825-5.15a7.474 7.474 0 0 0-4.514-4.07 25.123 25.123 0 0 0-8.116-.206c-3.446.206-4.497-1.219-4.48-4.533.121-14.267 0-28.535 0-42.82 0-7.177-.982-8.19-8.15-8.207L255.223.695Zm106.673 156.241c-1.998-1.717-3.291-2.833-4.462-3.983-12.699-12.603-25.363-25.256-38.08-37.773-3.928-3.897-6.323-3.897-10.217 0-6.634 6.507-13.388 12.911-19.729 19.711-3.084 3.33-4.859 2.867-7.823-.121-22.227-22.491-44.627-44.812-66.975-67.2-5.961-5.992-7.547-5.992-13.663.086a92575.976 92575.976 0 0 1-47.798 47.524c-1.12 1.116-2.429 2.026-4.566 3.777V17.212c0-7.005 0-7.022 7.116-7.022h199.357c7.288 0 7.323 0 7.323 7.383v133.56c-.017 1.528-.276 3.176-.483 5.82v-.017Zm-71.316 29.703c-22.09 0-44.197 0-66.286-.103a7.005 7.005 0 0 1-5.273-2.404 23.867 23.867 0 0 0-12.681-10.988 5.448 5.448 0 0 1-2.843-3.571c-2.102-11.796-7.392-16.723-19.695-18.354a5.409 5.409 0 0 1-3.584-2.782c-4.238-9.477-11.682-13.856-21.9-12.963a6.347 6.347 0 0 1-4.324-2.06c-2.413-2.541-1.103-4.636 1.137-6.868a10672.465 10672.465 0 0 0 48.676-47.85c4.049-4.001 4.032-3.984 7.96 0l68.75 68.402c4.273 4.241 6.203 4.241 10.442 0a4305.272 4305.272 0 0 0 19.177-19.058c4.067-4.035 4.084-4.035 8.047-.137 12.544 12.344 24.863 24.929 37.717 36.948 4.928 4.619 7.254 9.357 6.582 16.053-.568 5.477-.275 5.632-6.03 5.632l-65.872.103Zm-94.768 37.892 1.551.55c.007 4.194-.229 8.384-.707 12.551-1.516 9.014-8.098 15.692-17.23 15.898-13.009.309-26.277.859-39.027-1.253-22.107-3.657-36.925-17.513-43.559-38.631-6.479-20.603-2.033-39.489 12.82-55.611 6.409-6.868 13.319-13.409 20.056-20.037 3.791-3.743 7.702-4.241 11.062-1.562 3.36 2.678 3.808 6.267.672 10.954-1.878 2.816-2.568 5.563.31 8.001 2.877 2.438 5.927 1.871 8.615-.378 2.068-1.717 3.825-3.863 5.841-5.7 3.619-3.314 7.961-3.297 11.114 0 3.153 3.296 3.05 7.142-.155 10.696-2.016 2.232-4.291 4.224-6.255 6.49a5.158 5.158 0 0 0-1.624 3.654 5.143 5.143 0 0 0 1.486 3.712 5.443 5.443 0 0 0 7.392 1.116 20.56 20.56 0 0 0 3.653-2.953c2.688-2.559 5.169-5.306 8.012-7.761a6.905 6.905 0 0 1 8.753-.721 6.877 6.877 0 0 1 3.184 3.415c.63 1.474.722 3.12.262 4.655a10.84 10.84 0 0 1-2.825 4.635c-4.859 5.151-9.925 9.924-14.801 14.955-2.258 2.335-2.757 5.151-.466 7.692 2.292 2.541 5.325 2.524 8.168.755a19.993 19.993 0 0 0 3.187-2.867c3.774-3.709 7.496-7.469 11.321-11.143a7.35 7.35 0 0 1 4.249-2.39 7.37 7.37 0 0 1 4.814.793c4.652 2.352 5.307 8.138 1.241 12.311-7.099 7.262-14.371 14.353-21.573 21.53l-10.338 10.302c-2.344 2.455-3.05 5.305-.517 8.018a5.596 5.596 0 0 0 3.958 1.997 5.61 5.61 0 0 0 4.175-1.5 62.997 62.997 0 0 0 5.41-4.893c2.636-2.403 5.204-4.756 7.771-7.262v-.018ZM439.932 271.558V255.35c0-3.107-1.189-5.408-4.566-5.563-3.377-.154-5.169 2.249-5.169 5.46a1952.697 1952.697 0 0 0 0 33.274c0 3.125 1.378 5.735 5.169 5.597 3.791-.137 4.687-2.695 4.687-5.906-.121-5.545-.121-11.108-.121-16.654ZM430.11 130.273v15.812c0 4.207 2.119 6.868 5.169 6.525 3.86-.378 4.67-3.108 4.652-6.439v-31.626c0-3.313-.741-6.095-4.583-6.541-3.015-.361-5.169 2.335-5.169 6.456-.138 5.271-.069 10.542-.069 15.813ZM430.111 200.923v15.779c0 4.327 1.999 6.645 5.169 6.387 3.981-.326 4.635-3.142 4.618-6.421v-31.575c0-3.279-.603-6.095-4.635-6.352-3.239-.223-5.169 2.026-5.169 6.387-.052 5.254.017 10.525.017 15.795ZM75.403 56.237H59.896c-3.032 0-5.48.979-5.72 4.43-.242 3.451 2.257 5.15 5.393 5.271 10.751.149 21.498.149 32.238 0 3.136 0 5.807-1.717 5.634-5.15-.172-3.435-2.963-4.534-6.168-4.534l-15.87-.017ZM4.018 130.255v16.208c0 3.348.93 6.215 4.876 6.077 3.532-.12 4.652-2.644 4.635-5.94v-32.416c0-3.434-1.12-6.164-4.928-6.112-3.808.052-4.6 2.764-4.583 5.975.017 5.408 0 10.799 0 16.208ZM4.017 271.593v16.688c0 3.142.845 5.889 4.687 5.82 3.842-.068 4.807-2.489 4.79-5.786v-32.947c0-3.434-1.378-5.615-4.962-5.58-3.584.034-4.515 2.472-4.515 5.545.017 5.426 0 10.834 0 16.26ZM4.017 200.923v16.26c0 3.142.776 5.889 4.618 5.872 3.842-.017 4.86-2.421 4.86-5.718v-32.93c0-3.434-1.31-5.632-4.929-5.649-3.618-.017-4.531 2.438-4.531 5.494-.018 5.563-.018 11.109-.018 16.671ZM439.915 69.098c0-12.791 0-12.791-12.975-12.791a27.908 27.908 0 0 0-7.685.223c-1.723.55-4.462 2.661-4.411 4a7.83 7.83 0 0 0 3.774 5.15c1.516.911 3.894.43 5.893.465 5.565 0 5.565 0 5.6 5.734a42.122 42.122 0 0 0 0 4.688c.344 3.056 1.843 5.15 5.169 5.03 3.084-.189 4.462-2.25 4.514-5.15.155-2.593.121-5.014.121-7.35ZM426.975 345.524c12.699.206 13.25.875 12.975-12.706v-7.674a4.48 4.48 0 0 0-2.618-4.439 4.501 4.501 0 0 0-1.776-.403c-3.188-.258-4.825 1.717-5.169 4.498a45.45 45.45 0 0 0-.19 7.658c.103 2.575-1.085 3.622-3.532 3.64-2.447.017-5.324-.447-7.668.326a7.192 7.192 0 0 0-4.221 4.241c-.672 2.661 1.309 4.584 4.152 4.807 2.843.223 5.342.052 8.047.052ZM4.104 68.909c0 2.712-.104 5.425 0 8.138a4.159 4.159 0 0 0 1.288 3.327 4.191 4.191 0 0 0 3.398 1.12 4.477 4.477 0 0 0 3.338-1.305 4.446 4.446 0 0 0 1.297-3.331c.087-2.42.121-4.859 0-7.28-.12-2.42 1-3.605 3.584-3.554a46.24 46.24 0 0 0 7.72-.292c2.843-.394 4.945-2.077 4.652-5.15-.293-3.074-2.585-4.293-5.497-4.327H9.686c-3.876 0-5.806 1.94-5.737 5.837v6.868l.155-.051ZM16.7 345.523c2.705 0 5.617.601 8.08-.189a7.517 7.517 0 0 0 2.78-1.767 7.48 7.48 0 0 0 1.752-2.783c.517-2.558-1.723-4.395-4.514-4.55-2.568-.137-5.17-.12-7.72-.137-2.55-.017-3.652-1.099-3.583-3.64.109-2.558.08-5.12-.087-7.675-.206-2.798-1.93-4.91-4.67-4.309-1.722.36-4.238 2.489-4.393 4.035-.41 5.525-.468 11.07-.172 16.602a4.35 4.35 0 0 0 1.398 3.285 4.4 4.4 0 0 0 3.392 1.145h7.736v-.017ZM70.01 345.523h14.164c3.24 0 5.445-1.562 5.514-4.704.069-3.142-2.292-4.687-5.462-4.687H55.882c-3.274 0-5.807 1.236-5.652 4.876.138 3.262 2.43 4.567 5.617 4.55 4.721-.035 9.477-.035 14.164-.035ZM373.406 345.524h14.18c3.171 0 5.445-1.391 5.566-4.619.12-3.228-2.206-4.756-5.342-4.756h-28.757c-3.171 0-5.48 1.494-5.376 4.756.103 3.262 2.36 4.653 5.565 4.636 4.721-.017 9.443-.017 14.164-.017ZM312.841 345.523h13.784c3.292 0 5.721-1.15 5.755-4.79.035-3.64-2.326-4.601-5.41-4.601h-28.292c-3.085 0-5.514 1.099-5.566 4.515-.051 3.417 2.326 4.894 5.652 4.894l14.077-.018ZM130.8 345.524h13.785c3.325 0 5.738-1.288 5.772-4.825.035-3.536-2.378-4.567-5.479-4.584h-28.293c-3.067 0-5.479 1.03-5.513 4.533-.035 3.502 2.326 4.876 5.634 4.876H130.8ZM191.658 345.523h13.784c3.188 0 5.359-1.253 5.428-4.67.068-3.416-2.154-4.721-5.307-4.721h-28.396c-3.085 0-5.514 1.219-5.514 4.636 0 3.416 2.533 4.773 5.824 4.755h14.181ZM251.896 345.524h14.198c3.17 0 5.427-1.271 5.582-4.584.155-3.314-2.171-4.773-5.289-4.791H237.56c-2.981 0-5.049 1.305-5.169 4.516-.121 3.211 1.964 4.859 5.169 4.859h14.336Z" fill="#2061E6"/><path d="M361.896 156.953c.207-2.644.465-4.292.465-5.923V17.47c0-7.366 0-7.383-7.323-7.383H155.682c-7.099 0-7.116 0-7.116 7.022v101.78c2.136-1.717 3.446-2.661 4.566-3.777a12454.259 12454.259 0 0 0 47.814-47.56c6.117-6.077 7.702-6.077 13.664-.085 22.4 22.32 44.799 44.64 66.975 67.2 2.963 2.988 4.738 3.434 7.822.121 6.341-6.868 13.096-13.204 19.729-19.711 3.894-3.829 6.289-3.829 10.218 0 12.716 12.568 25.381 25.222 38.079 37.773 1.172 1.27 2.533 2.318 4.463 4.103Zm-60.307-67.252a25.32 25.32 0 0 1-9.845-1.782 25.248 25.248 0 0 1-8.377-5.455 25.158 25.158 0 0 1-5.592-8.269 25.086 25.086 0 0 1-1.928-9.784 25.244 25.244 0 0 1 7.483-18.099 25.361 25.361 0 0 1 8.361-5.501 25.44 25.44 0 0 1 9.847-1.845 25.1 25.1 0 0 1 9.865 1.762 25.033 25.033 0 0 1 8.379 5.479 24.92 24.92 0 0 1 5.549 8.316 24.838 24.838 0 0 1 1.828 9.819 24.71 24.71 0 0 1-1.795 9.825 24.81 24.81 0 0 1-5.538 8.324 24.916 24.916 0 0 1-8.384 5.474 24.978 24.978 0 0 1-9.87 1.736h.017Z" fill="#fff"/><g filter="url(#c)"><path d="M290.579 186.656h65.941c5.755 0 5.462-.154 6.031-5.631.672-6.696-1.723-11.435-6.582-16.054-12.854-12.018-25.174-24.603-37.718-36.948-3.963-3.897-3.98-3.897-8.046.137a31443.884 31443.884 0 0 0-19.178 19.058c-4.239 4.172-6.168 4.172-10.442 0l-68.801-68.47c-3.928-3.916-3.911-3.933-7.96 0l-48.676 47.85c-2.24 2.18-3.55 4.275-1.138 6.868a6.351 6.351 0 0 0 4.325 2.06c10.218-.893 17.661 3.434 21.9 12.963a5.41 5.41 0 0 0 3.584 2.781c12.303 1.631 17.592 6.559 19.695 18.354a5.445 5.445 0 0 0 2.843 3.571 23.88 23.88 0 0 1 12.681 10.989 6.988 6.988 0 0 0 5.273 2.352c22.072.172 44.179.12 66.268.12Z" fill="#fff"/></g><g filter="url(#d)"><path d="M195.811 224.549c-2.567 2.421-5.169 4.859-7.719 7.263a63.33 63.33 0 0 1-5.41 4.893 5.61 5.61 0 0 1-4.174 1.499 5.615 5.615 0 0 1-3.959-1.997c-2.533-2.713-1.827-5.563.517-8.018 3.36-3.434 6.892-6.868 10.338-10.302 7.202-7.177 14.474-14.267 21.573-21.53 4.066-4.172 3.446-9.958-1.241-12.31a7.356 7.356 0 0 0-9.063 1.596c-3.825 3.675-7.547 7.435-11.321 11.143a19.993 19.993 0 0 1-3.187 2.867c-2.843 1.717-5.79 1.923-8.167-.755-2.378-2.678-1.724-5.357.465-7.692 4.876-5.03 9.942-9.889 14.801-14.954a10.85 10.85 0 0 0 2.826-4.636 6.845 6.845 0 0 0-.263-4.654 6.875 6.875 0 0 0-3.184-3.416 6.911 6.911 0 0 0-8.753.722c-2.791 2.455-5.324 5.15-8.012 7.76a20.516 20.516 0 0 1-3.653 2.953 5.443 5.443 0 0 1-7.392-1.116 5.14 5.14 0 0 1 .138-7.365c1.965-2.267 4.239-4.258 6.255-6.49 3.205-3.555 3.222-7.572.155-10.697-3.067-3.125-7.495-3.245-11.114 0-2.016 1.837-3.773 3.949-5.841 5.7-2.688 2.249-5.755 2.799-8.615.378-2.86-2.421-2.188-5.151-.31-8.001 3.136-4.687 2.86-8.121-.672-10.954s-7.271-2.18-11.062 1.562c-6.737 6.628-13.647 13.101-20.056 20.037-14.853 16.036-19.299 35.008-12.82 55.611 6.634 21.119 21.452 34.974 43.559 38.631 12.75 2.112 26.018 1.563 39.027 1.254 9.063-.206 15.645-6.868 17.23-15.899.478-4.167.714-8.357.707-12.551l-1.603-.532Z" fill="#fff"/></g><path d="M301.572 89.7c3.373.092 6.729-.5 9.865-1.74a24.901 24.901 0 0 0 8.377-5.475 24.8 24.8 0 0 0 5.534-8.322 24.726 24.726 0 0 0 1.794-9.821 24.84 24.84 0 0 0-1.828-9.82 24.937 24.937 0 0 0-5.549-8.316 25.027 25.027 0 0 0-8.38-5.478 25.095 25.095 0 0 0-9.865-1.763 25.441 25.441 0 0 0-9.846 1.846 25.374 25.374 0 0 0-8.362 5.5 25.275 25.275 0 0 0-5.571 8.299 25.194 25.194 0 0 0-1.911 9.8 25.067 25.067 0 0 0 1.928 9.785 25.126 25.126 0 0 0 5.592 8.269 25.253 25.253 0 0 0 8.376 5.454 25.326 25.326 0 0 0 9.846 1.783Zm0-10.095a15.527 15.527 0 0 1-11.265-4.493 15.463 15.463 0 0 1-3.43-5.136 15.406 15.406 0 0 1-1.14-6.064 16.166 16.166 0 0 1 4.783-11.352 16.279 16.279 0 0 1 11.414-4.718 16.895 16.895 0 0 1 11.052 5.058 16.783 16.783 0 0 1 4.766 11.15 15.963 15.963 0 0 1-4.922 11.099 16.074 16.074 0 0 1-11.327 4.456h.069Z" fill="#2061E6"/><path d="M301.502 79.606a16.071 16.071 0 0 0 11.282-4.48 15.96 15.96 0 0 0 4.898-11.075 16.778 16.778 0 0 0-4.766-11.15 16.895 16.895 0 0 0-11.052-5.058 16.276 16.276 0 0 0-11.413 4.717 16.162 16.162 0 0 0-4.784 11.353 15.446 15.446 0 0 0 4.57 11.2 15.553 15.553 0 0 0 11.265 4.493Z" fill="#fff"/></g><defs><filter id="b" x="0" y=".695" width="444" height="353" filterUnits="userSpaceOnUse" color-interpolation-filters="sRGB"><feFlood flood-opacity="0" result="BackgroundImageFix"/><feColorMatrix in="SourceAlpha" values="0 0 0 0 0 0 0 0 0 0 0 0 0 0 0 0 0 0 127 0" result="hardAlpha"/><feOffset dy="4"/><feGaussianBlur stdDeviation="2"/><feComposite in2="hardAlpha" operator="out"/><feColorMatrix values="0 0 0 0 0 0 0 0 0 0 0 0 0 0 0 0 0 0 0.25 0"/><feBlend in2="BackgroundImageFix" result="effect1_dropShadow"/><feBlend in="SourceGraphic" in2="effect1_dropShadow" result="shape"/></filter><filter id="c" x="148.719" y="75.805" width="217.943" height="128.858" filterUnits="userSpaceOnUse" color-interpolation-filters="sRGB"><feFlood flood-opacity="0" result="BackgroundImageFix"/><feColorMatrix in="SourceAlpha" values="0 0 0 0 0 0 0 0 0 0 0 0 0 0 0 0 0 0 127 0" result="hardAlpha"/><feOffset dy="14"/><feGaussianBlur stdDeviation="2"/><feComposite in2="hardAlpha" operator="out"/><feColorMatrix values="0 0 0 0 0 0 0 0 0 0 0 0 0 0 0 0 0 0 0.65 0"/><feBlend in2="BackgroundImageFix" result="effect1_dropShadow"/><feBlend in="SourceGraphic" in2="effect1_dropShadow" result="shape"/></filter><filter id="d" x="89.996" y="134.682" width="123.68" height="137.15" filterUnits="userSpaceOnUse" color-interpolation-filters="sRGB"><feFlood flood-opacity="0" result="BackgroundImageFix"/><feColorMatrix in="SourceAlpha" values="0 0 0 0 0 0 0 0 0 0 0 0 0 0 0 0 0 0 127 0" result="hardAlpha"/><feOffset dy="14"/><feGaussianBlur stdDeviation="2"/><feComposite in2="hardAlpha" operator="out"/><feColorMatrix values="0 0 0 0 0 0 0 0 0 0 0 0 0 0 0 0 0 0 0.65 0"/><feBlend in2="BackgroundImageFix" result="effect1_dropShadow"/><feBlend in="SourceGraphic" in2="effect1_dropShadow" result="shape"/></filter><clipPath id="a"><path fill="#fff" transform="matrix(-1 0 0 1 440 .695)" d="M0 0h436v345H0z"/></clipPath></defs></svg>